<?xml version="1.0" standalone="no"?><svg xmlns="http://www.w3.org/2000/svg" viewBox="0 0 1440 320"><path fill="#705DFF" fill-opacity="1" d="M0,192L30,165.3C60,139,120,85,180,101.3C240,117,300,203,360,218.7C420,235,480,181,540,181.3C600,181,660,235,720,218.7C780,203,840,117,900,112C960,107,1020,181,1080,176C1140,171,1200,85,1260,64C1320,43,1380,85,1410,106.7L1440,128L1440,320L1410,320C1380,320,1320,320,1260,320C1200,320,1140,320,1080,320C1020,320,960,320,900,320C840,320,780,320,720,320C660,320,600,320,540,320C480,320,420,320,360,320C300,320,240,320,180,320C120,320,60,320,30,320L0,320Z"></path></svg>